<svg id="Layer_1" data-name="Layer 1" xmlns="http://www.w3.org/2000/svg" viewBox="0 0 562.25 567.25"><defs><style>.cls-1,.cls-2{fill:#fff;}.cls-2{stroke:#fff;stroke-miterlimit:10;stroke-width:70px;}</style></defs><title>Untitled-1</title><path class="cls-1" d="M247.5,426C150.18,426,71,346.82,71,249.5S150.18,73,247.5,73,424,152.18,424,249.5A176.5,176.5,0,0,1,247.5,426Z" transform="translate(-36 -38)"/><path class="cls-1" d="M247.5,108a141.5,141.5,0,1,1-100.06,41.44A140.57,140.57,0,0,1,247.5,108m0-70C130.69,38,36,132.69,36,249.5S130.69,461,247.5,461A211.5,211.5,0,0,0,459,249.5C459,132.69,364.31,38,247.5,38Z" transform="translate(-36 -38)"/><line class="cls-2" x1="537.5" y1="542.5" x2="337" y2="342"/></svg>